<?xml version="1.0" standalone="no"?>
<!DOCTYPE svg PUBLIC "-//W3C//DTD SVG 20010904//EN"
 "http://www.w3.org/TR/2001/REC-SVG-20010904/DTD/svg10.dtd">
<svg version="1.0" xmlns="http://www.w3.org/2000/svg"
 width="233.000000pt" height="316.000000pt" viewBox="0 0 233.000000 316.000000"
 preserveAspectRatio="xMidYMid meet">
<metadata>
Created by potrace 1.16, written by Peter Selinger 2001-2019
</metadata>
<g transform="translate(0.000000,316.000000) scale(0.100000,-0.100000)"
fill="#000000" stroke="none">
<path d="M1273 2653 l-18 -18 -33 3 -34 3 -16 -14 -17 -14 -39 -6 -39 -6 -37
-36 -36 -35 -28 0 -29 0 -41 -11 -41 -12 -32 -14 -33 -14 -28 -27 -29 -27 -27
-57 -27 -58 -11 -6 -10 -7 -20 -41 -20 -41 -20 -39 -19 -38 -6 -104 -6 -103
17 -7 16 -6 0 -17 0 -17 10 -10 10 -10 -2 -55 -1 -54 2 -134 2 -135 -11 -86
-10 -87 9 -114 10 -114 25 -95 25 -95 26 -103 25 -103 20 -44 20 -44 0 -24 0
-25 -15 -12 -15 -12 0 -13 0 -14 15 -3 15 -3 -15 -25 -14 -25 -10 -20 -10 -20
0 14 -1 14 -92 -5 -93 -5 -43 -22 -42 -21 0 -16 0 -16 -20 -5 -20 -5 0 -15 0
-15 -25 6 -25 6 -12 -20 -13 -20 -15 0 -15 0 -33 -20 -32 -20 -6 0 -6 0 11 13
11 14 -7 6 -6 7 11 0 12 0 0 24 0 24 -16 6 -16 6 -28 0 -29 0 -6 -10 -6 -10
-50 0 -49 0 0 -10 0 -10 -30 0 -30 0 0 -30 0 -30 40 0 40 0 0 -9 0 -9 -12 -5
-13 -5 34 3 34 4 10 10 11 11 -10 0 -10 0 -12 -12 -12 -12 0 16 0 16 44 -1 45
-2 -29 -15 -28 -15 -34 -18 -33 -18 -3 10 -3 10 -17 -6 -17 -6 -13 -15 -12
-16 0 -8 0 -8 20 0 20 0 0 -9 0 -10 -9 -5 -9 -6 5 -20 6 -21 3 3 3 4 10 43 9
42 -14 -5 -14 -5 0 8 0 9 38 4 37 5 20 8 20 9 -15 -19 -15 -18 15 5 15 5 3 22
4 23 29 11 29 12 -4 12 -5 13 8 0 9 0 6 -16 6 -16 0 -24 0 -24 14 0 14 0 5
-12 5 -13 1 16 1 17 -15 6 -15 5 0 10 0 9 23 6 22 5 22 21 22 20 10 0 10 0 11
21 11 20 14 -11 14 -11 21 11 21 11 -7 10 -6 10 24 -6 23 -6 98 15 98 15 17
12 17 13 -96 -95 -96 -94 -43 -65 -43 -65 -20 -22 -20 -23 9 -1 9 -1 25 -2 25
-1 30 55 30 56 29 37 28 37 7 -4 6 -4 20 15 20 16 -17 -6 -18 -6 0 4 0 4 20
11 20 11 -1 -8 -1 -8 1 -7 1 -7 43 43 42 42 -27 -31 -28 -31 0 -9 0 -9 39 38
39 38 -6 20 -5 19 -46 -43 -46 -43 57 60 57 60 1 5 1 5 5 23 6 22 14 0 14 0 0
-9 0 -10 -19 -13 -18 -13 3 -17 2 -18 -9 -6 -9 -5 0 -11 0 -10 18 13 17 13
-13 -14 -12 -14 0 -10 0 -9 20 18 20 18 -5 7 -5 7 22 19 21 19 -8 -15 -8 -15
9 8 9 9 0 6 1 7 12 22 12 23 21 11 21 11 -18 -33 -19 -33 -46 -48 -45 -48 3
-4 3 -3 -17 -14 -17 -14 7 12 7 12 -9 5 -9 6 -42 -47 -41 -47 7 20 6 19 -10
-14 -10 -14 4 -12 5 -11 -19 -45 -19 -44 -7 -40 -6 -40 15 19 15 20 0 13 0 12
21 57 22 57 8 -15 8 -14 -19 -63 -20 -63 0 -9 0 -9 13 0 13 0 18 73 19 72 4
-12 4 -12 41 41 42 42 5 -16 6 -16 13 14 13 14 -16 0 -15 0 0 8 0 8 18 16 17
17 10 13 11 13 22 58 22 58 14 21 15 21 -2 -21 -1 -21 -7 5 -7 4 -11 -31 -11
-31 6 -10 6 -9 -13 -15 -12 -14 6 -6 6 -6 10 7 11 6 0 18 0 18 7 7 8 7 11 -33
11 -33 6 35 6 35 6 68 7 67 9 0 9 0 0 14 0 14 12 4 12 4 -9 13 -8 13 -63 29
-64 29 -12 20 -13 20 -23 0 -23 0 -9 -23 -9 -22 0 15 -1 15 -15 29 -16 30 6
13 5 14 -9 -5 -8 -6 -21 83 -21 82 -21 82 -20 82 0 8 0 8 8 -12 8 -13 -1 39 0
39 -13 -10 -12 -11 -7 7 -6 6 10 0 11 0 -1 88 0 87 21 38 21 38 3 -28 3 -28
23 -3 22 -3 0 8 0 8 -9 32 -9 32 30 48 31 48 18 43 19 44 0 5 0 5 -16 -13 -17
-14 23 45 23 45 -21 -18 -20 -18 -31 -57 -32 -57 -25 -35 -25 -35 -17 -19 -17
-19 22 7 22 7 -32 -50 -32 -50 -7 22 -6 22 0 15 -1 15 8 -20 8 -20 7 40 8 39
21 30 21 29 2 46 3 46 9 3 9 3 -11 34 -11 35 -8 0 -7 0 6 24 6 24 -20 13 -19
14 -5 23 -6 23 25 27 25 27 -7 -20 -6 -19 5 5 5 5 25 37 26 38 0 33 0 32 -20
22 -20 21 0 5 0 5 15 -5 15 -6 0 18 0 19 -9 14 -9 14 -17 -27 -18 -27 -18 6
-19 6 0 -14 0 -15 12 -4 11 -4 -11 -20 -11 -19 -1 15 0 15 -24 18 -23 18 3 82
3 83 15 34 15 35 21 25 20 25 -2 -45 -3 -45 -17 1 -18 2 5 -8 5 -8 -20 -48
-21 -47 5 -5 5 -4 21 45 22 46 13 11 13 11 7 -11 7 -11 -23 -37 -22 -37 -24
-44 -24 -44 4 -4 5 -4 34 53 35 53 13 24 12 24 -5 54 -6 54 14 40 14 40 49 57
49 57 6 18 7 17 31 7 31 6 -14 8 -13 9 14 9 15 10 48 -4 48 -3 8 14 8 14 52
10 52 9 33 -4 32 -5 -27 12 -28 12 0 14 0 14 -12 -9 -13 -10 -24 -6 -24 -6 20
20 20 21 41 5 42 6 11 13 11 14 14 0 14 0 0 -11 0 -11 20 5 20 5 0 -10 0 -9
10 6 10 6 0 20 0 19 15 0 16 0 -6 -34 -7 -33 30 -6 29 -6 21 6 21 5 -6 16 -6
17 26 -23 25 -24 34 7 33 6 -15 -10 -15 -11 5 -1 5 -1 18 -3 19 -3 11 -16 12
-15 28 -11 28 -10 29 0 28 0 15 -22 15 -23 25 -27 26 -28 23 0 23 -1 46 -42
46 -42 15 -30 15 -30 7 -28 7 -28 17 -17 17 -18 26 -49 27 -50 15 -55 15 -55
0 -70 1 -70 -15 -55 -16 -55 -9 -31 -9 -30 0 -16 0 -17 -52 5 -53 5 -45 -24
-44 -25 -5 -13 -4 -14 19 16 19 16 28 7 27 6 26 6 25 7 25 -13 24 -13 0 -9 0
-9 -20 11 -20 11 0 -10 0 -10 19 -6 20 -6 3 -32 3 -32 -19 -65 -18 -65 -46
-70 -46 -70 -8 -10 -8 -10 -23 -30 -24 -30 -7 -55 -6 -55 -16 -45 -16 -45 0
-80 -1 -80 27 -55 28 -55 41 -37 42 -38 34 -28 33 -28 -21 -42 -22 -42 -75
-128 -76 -127 -54 -81 -54 -81 0 -12 0 -11 8 0 7 0 49 78 50 77 103 175 103
175 0 12 0 13 13 0 12 0 35 -21 35 -21 20 -22 20 -22 28 1 28 2 5 -9 6 -9 -14
-16 -13 -16 20 12 21 13 37 -15 37 -16 0 -11 0 -11 -39 -47 -39 -47 -25 -47
-25 -47 -20 -28 -19 -28 -27 -52 -26 -52 0 -11 0 -10 10 0 9 0 29 58 29 57 36
63 37 64 22 31 21 32 25 27 26 28 9 0 9 0 -6 -15 -5 -15 12 0 12 0 1 28 1 27
-34 23 -34 22 -15 0 -14 0 0 10 0 10 -15 0 -15 0 -12 20 -13 20 -29 0 -29 0
-33 25 -33 25 -10 0 -11 0 0 11 0 11 -28 -3 -28 -3 -28 19 -27 20 -45 42 -44
41 -25 50 -25 50 0 66 0 65 14 43 14 43 11 54 12 55 21 35 22 36 8 10 8 10 25
30 25 30 37 75 37 75 1 85 1 85 13 50 12 50 20 58 19 58 -4 83 -4 83 -17 59
-17 59 -27 50 -26 50 -11 10 -11 10 -24 60 -23 60 -46 43 -45 43 -41 18 -41
19 -29 36 -29 36 -28 0 -28 0 -27 14 -27 14 -30 32 -30 31 -32 -6 -32 -6 -13
21 -13 20 -17 0 -17 0 -10 -17 -9 -17 -16 13 -16 13 0 18 0 18 -16 6 -16 6 -9
0 -9 0 -17 -17z m-467 -222 l-1 -19 -27 -27 -28 -28 0 9 0 9 6 23 6 22 14 0
14 0 0 15 0 15 9 0 8 0 -1 -19z m-86 -575 l0 -16 -9 0 -9 0 -5 13 -5 12 -1
-22 -1 -22 -10 -6 -10 -6 6 33 6 33 4 13 4 13 15 -15 15 -15 0 -15z m-41 -347
l1 -35 -16 -20 -15 -19 5 34 6 34 1 41 0 41 9 -20 9 -20 0 -36z m259 -971 l3
-15 -48 -21 -48 -21 -22 -17 -23 -16 22 53 22 54 11 11 10 11 35 -12 35 -12 3
-15z m-12 -67 l-17 -19 -14 2 -14 2 -8 9 -8 8 13 -7 12 -7 0 10 0 10 23 4 22
4 4 2 4 1 -17 -19z m-102 -77 l-46 -54 -5 0 -5 0 42 50 42 50 -7 0 -6 0 6 10
6 10 10 -6 9 -5 -46 -55z m-44 42 l0 -4 -16 -6 -15 -6 6 10 6 10 10 0 9 0 0
-4z m-81 -30 l-4 -3 -22 -12 -23 -12 0 10 0 10 18 4 17 5 9 1 9 1 -4 -4z
m-136 -26 l5 -20 -6 0 -7 -1 -42 -8 -43 -8 0 8 0 9 38 19 37 20 6 1 7 0 5 -20z
m187 16 l0 -5 -10 -6 -10 -6 0 10 0 11 10 0 10 0 0 -4z m-127 -23 l-13 -5 -12
5 -13 5 25 0 25 0 -12 -5z m14 -19 l-6 -6 -13 5 -13 5 19 1 19 1 -6 -6z m53
-39 l-44 -45 -5 0 -5 0 44 45 44 45 5 0 5 0 -44 -45z m-464 -20 l-17 -13 -47
-6 -47 -7 -42 -6 -43 -5 0 11 0 11 25 0 25 0 0 10 0 10 49 0 50 0 5 9 6 8 26
-5 27 -5 -17 -12z m594 -19 l0 -4 -17 -13 -18 -14 14 18 13 17 4 0 4 0 0 -4z
m-245 -68 l-59 -63 -10 -10 -10 -10 14 20 14 20 50 53 50 52 5 0 4 0 -58 -62z
m205 19 l0 -4 -22 -19 -23 -19 19 23 19 22 4 0 3 0 0 -3z m-56 -19 l-5 -8 -11
6 -11 7 5 -15 6 -15 -13 0 -14 0 9 17 9 17 15 0 15 0 -5 -9z m-243 -126 l-20
-38 -18 -14 -18 -15 16 20 17 20 16 33 17 32 4 0 5 0 -19 -38z"/>
<path d="M989 2433 l-14 -18 20 15 20 14 4 3 4 3 -10 0 -11 0 -13 -17z"/>
<path d="M970 2390 l0 -10 11 0 10 0 -6 10 -6 10 -5 0 -4 0 0 -10z"/>
<path d="M818 2293 l13 -5 6 6 6 6 -19 -1 -19 -1 13 -5z"/>
<path d="M762 2265 l-12 -26 0 -7 1 -7 15 28 16 29 -5 4 -4 4 -11 -25z"/>
<path d="M820 2269 l0 -10 10 6 10 6 0 5 0 4 -10 0 -10 0 0 -11z"/>
<path d="M777 2254 l-7 -7 0 -16 0 -15 11 11 11 11 -4 12 -3 11 -8 -7z"/>
<path d="M1280 1785 l0 -4 23 -12 22 -12 -14 16 -13 17 -9 0 -9 0 0 -5z"/>
<path d="M753 1575 l-11 -25 9 0 10 0 5 15 6 14 -4 10 -3 10 -12 -24z"/>
<path d="M1110 1583 l0 -22 11 -6 10 -7 3 3 3 4 -14 25 -13 25 0 -22z"/>
<path d="M1176 1571 l-19 -21 5 -5 4 -5 19 13 18 14 -4 12 -5 13 -18 -21z"/>
<path d="M1715 1385 l-7 -57 5 -4 5 -5 7 56 7 57 -5 4 -5 5 -7 -56z"/>
<path d="M1770 1391 l0 -10 10 -6 10 -6 0 10 0 10 -10 6 -10 6 0 -10z"/>
<path d="M1744 1306 l-17 -27 5 -5 5 -5 17 27 18 26 -5 5 -5 5 -18 -26z"/>
<path d="M904 1285 l20 -15 5 6 5 5 -14 9 -15 10 -10 0 -10 -1 19 -14z"/>
<path d="M835 1280 l-6 -10 15 6 16 6 0 4 0 4 -9 0 -10 0 -6 -10z"/>
<path d="M1760 1260 l-15 -10 15 0 15 0 15 10 15 10 -15 0 -15 0 -15 -10z"/>
<path d="M790 919 l0 -10 10 6 10 6 0 5 0 4 -10 0 -10 0 0 -11z"/>
<path d="M571 294 l-31 -26 0 12 0 11 -11 -7 -11 -6 12 -8 11 -7 -33 -29 -34
-30 -64 -87 -64 -87 -19 6 -18 6 13 -21 13 -21 6 0 7 0 58 72 58 73 35 45 34
45 41 43 40 42 -6 0 -6 0 -31 -26z"/>
<path d="M390 255 l0 -25 10 0 10 0 0 18 0 17 10 -15 10 -15 0 10 0 10 -8 10
-7 10 -12 3 -13 2 0 -25z"/>
<path d="M490 265 l-13 -15 17 6 16 6 0 9 0 9 -4 0 -4 0 -12 -15z"/>
<path d="M345 230 l-20 -9 22 0 22 -1 6 10 6 10 -8 -1 -8 0 -20 -9z"/>
<path d="M187 202 l-17 -19 0 -11 0 -12 6 0 7 0 18 22 19 21 0 9 0 8 -8 0 -9
0 -16 -18z"/>
<path d="M964 187 l17 -25 15 -6 14 -5 0 9 0 9 -31 22 -32 22 17 -26z"/>
<path d="M880 190 l0 -10 28 1 27 0 -20 9 -20 9 -7 0 -8 1 0 -10z"/>
<path d="M610 171 l-10 -20 -35 -12 -34 -13 -6 -14 -5 -14 7 4 8 4 33 13 33
13 15 29 15 29 -5 0 -5 0 -11 -19z"/>
<path d="M1034 183 l-12 -4 4 -17 5 -17 -26 -12 -27 -12 -25 10 -26 10 14 -17
13 -16 39 5 39 5 10 10 10 10 -4 24 -3 25 -11 -4z"/>
<path d="M92 148 l-12 -12 0 -8 0 -8 9 0 9 0 6 16 6 17 -3 3 -3 4 -12 -12z"/>
<path d="M781 150 l-13 -7 18 -7 17 -7 9 9 9 9 -14 6 -14 5 -12 -8z"/>
<path d="M830 152 l0 -8 20 -17 20 -16 -7 -17 -6 -17 11 7 12 7 0 -10 0 -11
15 0 15 0 1 8 1 7 4 32 4 32 -9 5 -8 6 1 -30 0 -30 -9 -2 -10 -3 -9 21 -10 21
-18 12 -18 11 0 -8z"/>
<path d="M661 119 l-11 -32 1 -11 0 -11 15 39 14 39 -4 4 -4 4 -11 -32z"/>
<path d="M790 101 l0 -10 10 -6 10 -6 0 10 0 10 -10 6 -10 6 0 -10z"/>
<path d="M830 101 l0 -10 10 -6 10 -6 -6 15 -6 16 -4 0 -4 0 0 -9z"/>
</g>
</svg>
