<?xml version="1.0" standalone="no"?>
<!DOCTYPE svg PUBLIC "-//W3C//DTD SVG 20010904//EN"
 "http://www.w3.org/TR/2001/REC-SVG-20010904/DTD/svg10.dtd">
<svg version="1.0" xmlns="http://www.w3.org/2000/svg"
 width="212.000000pt" height="434.000000pt" viewBox="0 0 212.000000 434.000000"
 preserveAspectRatio="xMidYMid meet">
<metadata>
Created by potrace 1.16, written by Peter Selinger 2001-2019
</metadata>
<g transform="translate(0.000000,434.000000) scale(0.100000,-0.100000)"
fill="#000000" stroke="none">
<path d="M1200 3780 l0 -30 -20 0 -20 0 0 -14 0 -14 -32 -5 -33 -5 -14 19 -13
19 -17 0 -17 0 -13 -12 -13 -13 -5 13 -5 12 -38 0 -39 0 -5 -9 -6 -9 -76 -7
-76 -7 -5 -14 -5 -14 -15 0 -14 0 -15 15 -15 15 -18 0 -19 0 -12 -15 -12 -15
-9 0 -9 0 -20 -20 -20 -20 -15 0 -15 0 0 -10 0 -10 -14 0 -14 0 -24 -27 -24
-28 -20 -11 -19 -11 -3 -21 -3 -21 -14 5 -13 5 -61 -58 -61 -59 -6 -32 -6 -32
-14 0 -14 0 0 -15 0 -14 -20 -11 -20 -11 0 -9 0 -9 -50 -51 -50 -51 -1 -57 -1
-57 -4 -95 -4 -95 0 -40 0 -40 11 -50 10 -50 16 -55 15 -55 23 -55 24 -55 7
-82 7 -83 -41 0 -41 0 -6 -20 -6 -20 -11 0 -11 0 6 -80 5 -81 11 -12 10 -13 6
-44 6 -45 11 -40 10 -40 23 -50 24 -50 12 -45 13 -45 26 -40 26 -40 11 -30 11
-30 18 -70 17 -70 24 -35 23 -35 0 -18 0 -18 -44 -47 -44 -47 -18 -40 -19 -40
-19 -3 -18 -4 -29 31 -28 31 -30 0 -31 0 0 -15 0 -15 -9 0 -9 0 -17 -36 -17
-36 -19 -5 -19 -5 0 -9 0 -10 15 -5 15 -6 15 12 15 13 16 33 16 34 9 0 9 0 0
15 0 15 11 0 11 0 26 -30 26 -30 32 0 32 0 0 -60 0 -59 33 -66 34 -67 54 -59
53 -59 57 -44 56 -43 75 -40 75 -40 74 -22 73 -22 77 0 76 0 50 10 50 10 74
31 75 32 55 41 56 41 98 100 97 99 0 16 0 17 14 19 14 20 12 60 13 60 9 18 10
19 5 -6 5 -5 26 47 25 47 11 20 11 20 21 30 20 30 18 37 17 38 13 37 14 38 17
39 17 40 18 -24 17 -23 37 6 36 6 5 -10 6 -9 23 0 23 0 38 -30 38 -30 8 0 7 0
16 6 16 6 0 9 0 9 -23 -5 -23 -6 -38 30 -39 31 -22 0 -22 0 -7 8 -8 7 -36 0
-35 0 -7 25 -7 25 13 110 12 110 18 45 17 45 9 9 8 10 0 14 0 13 25 37 25 37
0 53 0 52 -24 12 -25 11 -6 37 -6 37 -1 39 0 39 13 45 13 45 18 27 18 26 0 11
0 11 8 0 7 0 20 38 19 37 30 40 30 40 13 8 13 8 0 26 0 25 -15 -12 -15 -13 -5
5 -5 4 21 38 20 38 -6 6 -6 7 -19 -25 -20 -25 0 -17 0 -17 -15 -15 -15 -15 0
-31 0 -32 -14 5 -15 6 -6 -29 -6 -28 -44 -64 -45 -63 -1 -25 -2 -25 -7 45 -8
45 -11 40 -12 40 -10 85 -11 85 -3 35 -3 35 -7 30 -7 30 -27 58 -26 57 -12 0
-13 0 0 20 0 20 -13 0 -13 0 4 -35 4 -35 15 0 14 0 -6 -11 -7 -10 16 -18 15
-17 3 -34 3 -35 14 -11 14 -11 2 -102 2 -102 11 -11 12 -12 0 -33 0 -34 16
-37 16 -37 0 -65 0 -65 14 -25 13 -25 6 -47 6 -47 22 -7 22 -7 -15 -6 -15 -6
-33 -24 -32 -25 0 -9 0 -9 23 14 22 14 17 7 16 6 -8 -27 -8 -27 -22 -43 -21
-43 2 -17 2 -17 -16 -54 -17 -55 0 -28 0 -29 -17 -67 -17 -67 -13 -10 -14 -10
-1 -25 0 -25 -8 -20 -7 -20 -27 -60 -27 -60 -14 -25 -14 -25 -11 3 -10 2 2 -7
1 -8 -7 -20 -8 -20 -9 -23 -9 -23 -20 11 -20 11 0 -11 0 -10 15 0 15 0 0 -8 0
-8 -17 -23 -18 -22 -55 -68 -56 -67 -21 -34 -22 -35 -18 -17 -18 -17 -30 -31
-30 -32 -45 -20 -45 -21 -25 -2 -25 -3 -60 -12 -60 -12 -85 4 -85 4 -63 34
-64 33 -11 18 -12 19 -8 0 -8 0 -42 33 -42 32 -12 12 -13 12 0 8 0 9 -36 35
-35 34 -36 54 -36 54 -14 16 -14 16 -19 25 -19 25 -1 -17 0 -16 45 -68 45 -67
0 -6 0 -6 50 -55 50 -55 48 -47 47 -48 11 0 11 0 23 -25 23 -25 18 0 18 0 7
-11 7 -11 43 -19 43 -19 128 0 128 0 31 4 30 3 22 12 22 12 9 -5 9 -6 12 15
12 15 16 0 15 0 41 44 41 45 24 28 24 28 23 35 23 35 21 25 22 25 -6 -34 -6
-35 -25 -55 -26 -55 -102 -101 -102 -102 -70 -41 -70 -41 -80 -27 -80 -27 -85
-1 -85 0 -38 13 -37 13 5 7 4 8 -27 -4 -27 -5 13 10 13 9 -29 0 -29 0 -69 40
-69 40 3 12 2 12 -10 -6 -11 -7 -14 12 -15 12 7 11 6 10 -12 -8 -13 -7 -30 28
-30 29 -49 61 -49 62 -25 53 -25 54 0 53 0 53 14 32 13 32 27 24 26 24 0 14 0
14 15 5 15 6 -6 9 -6 10 12 13 11 14 -7 28 -7 29 -29 58 -29 59 -10 59 -9 59
-10 26 -10 25 0 22 0 22 11 -15 10 -15 -4 20 -3 20 -12 -2 -12 -3 -4 23 -5 22
-11 50 -11 50 -9 15 -9 14 -7 -18 -7 -19 13 -21 14 -21 7 -50 7 -50 7 -20 7
-20 -21 33 -21 32 0 30 0 29 -10 6 -10 6 0 22 0 22 -20 38 -20 37 0 19 0 19
-16 64 -16 63 -13 25 -13 25 -3 35 -2 35 12 33 13 32 10 0 9 0 -6 -10 -6 -10
27 0 27 0 23 -25 23 -25 4 -47 4 -48 0 75 1 75 -24 125 -24 125 -20 40 -19 40
-25 105 -24 105 -5 33 -4 33 9 5 8 5 0 47 0 47 9 14 9 14 -8 27 -8 27 12 0 12
0 -1 -25 0 -25 12 -4 13 -5 6 17 7 16 -13 25 -13 24 17 19 17 19 -13 5 -13 5
16 1 15 1 3 41 2 42 -23 -6 -23 -6 19 14 20 15 8 0 8 0 1 23 1 22 5 -17 4 -18
8 0 7 0 25 28 26 27 1 25 1 25 17 12 17 12 -6 21 -5 20 6 0 7 0 40 36 40 35
32 -3 32 -4 5 12 4 12 -11 12 -12 13 11 -6 12 -7 10 13 10 12 4 25 3 25 21 -3
20 -3 19 21 18 20 11 0 11 -1 -19 -14 -20 -15 11 0 12 0 17 17 17 18 5 -13 4
-12 18 10 19 10 7 -12 7 -11 -10 6 -10 6 0 -14 0 -14 19 10 19 10 -11 14 -11
13 15 5 14 6 29 -9 28 -8 -10 -1 -10 -1 14 -9 13 -9 19 5 19 5 0 10 0 10 15
-5 14 -6 6 10 6 9 10 -6 9 -5 -2 8 -2 8 7 21 7 21 24 11 23 10 11 -7 12 -7
-34 -12 -33 -12 1 -38 1 -37 27 -3 27 -3 40 26 41 25 0 -17 0 -18 49 2 50 1
10 7 11 6 0 11 0 10 21 29 20 29 39 0 39 0 6 -9 6 -10 50 6 50 6 29 -28 30
-29 0 15 0 14 8 -11 7 -11 18 3 17 2 0 -5 0 -5 -16 -34 -16 -34 6 -16 6 -17
19 17 19 17 5 -16 6 -15 -17 -1 -17 0 20 -8 20 -8 9 4 8 5 -6 32 -6 31 9 -14
9 -14 11 7 11 7 1 -28 2 -28 7 40 7 40 2 -42 1 -43 -14 0 -15 0 -5 18 -5 17 2
-20 2 -20 37 -2 38 -2 -1 7 -1 7 2 20 2 20 14 -33 14 -32 28 6 27 7 10 8 11 8
19 -34 18 -35 30 0 30 0 -6 -7 -7 -6 11 -13 11 -14 9 6 9 5 7 -18 7 -18 10 -7
10 -7 18 10 18 10 0 -11 0 -10 25 -10 25 -10 0 -21 0 -22 -21 -43 -22 -42 8
-19 8 -18 9 35 10 35 9 10 10 10 8 -14 8 -13 7 27 7 27 6 -6 7 -7 2 -14 2 -14
16 -32 16 -32 0 -10 0 -9 -19 23 -18 23 -8 -23 -7 -24 -2 -36 -2 -36 4 -12 4
-13 12 7 11 7 -17 -27 -18 -26 0 -11 0 -10 20 0 20 0 0 -10 0 -10 -12 0 -11 0
16 -18 17 -19 0 -14 0 -14 -10 15 -10 15 0 -18 0 -18 15 -5 15 -6 0 -13 0 -13
23 -15 23 -15 0 57 1 56 7 29 7 28 -12 -8 -12 -7 8 19 9 19 -2 70 -1 70 -11 3
-10 4 6 9 5 9 -6 31 -7 30 -29 30 -29 30 0 14 0 15 -25 6 -25 6 0 9 0 9 -17
20 -17 20 -12 0 -12 0 -25 30 -26 30 -10 0 -11 0 0 10 0 10 -45 0 -45 0 -22
48 -22 47 -8 3 -8 4 0 14 0 14 -34 0 -35 0 -15 -16 -16 -15 0 10 0 11 -25 6
-25 6 0 14 0 14 -50 0 -50 0 0 9 0 10 -21 6 -21 7 -19 19 -19 19 -15 0 -15 0
-19 11 -18 12 -26 -7 -26 -6 -4 -18 -4 -17 -7 38 -8 37 -14 0 -14 0 0 -30z
m129 -53 l11 -14 -13 0 -14 0 0 14 0 13 2 0 3 0 11 -13z m-342 -33 l-6 -6 -13
5 -13 5 19 1 19 1 -6 -6z m62 -21 l11 -28 -13 17 -14 18 -5 -5 -5 -5 0 15 0
15 7 0 7 0 12 -27z m248 21 l-6 -6 -13 5 -13 5 19 1 19 1 -6 -6z m-477 -10 l0
-3 -9 -6 -10 -5 -5 8 -5 9 14 0 15 0 0 -3z m25 -14 l-6 -10 -12 0 -12 0 15 10
15 10 3 0 3 0 -6 -10z m-111 -8 l5 -9 -14 0 -14 0 5 9 5 8 4 0 4 0 5 -8z m231
-20 l-5 -6 -13 13 -12 12 18 -7 18 -6 -6 -6z m120 -12 l-6 -10 -10 0 -10 0 6
10 6 10 10 0 10 0 -6 -10z m476 -7 l14 -18 -17 14 -18 13 0 4 0 4 4 0 4 0 13
-17z m-634 -9 l-6 -6 -13 5 -13 5 19 1 19 1 -6 -6z m583 -14 l0 -10 -4 0 -5 0
-6 10 -6 10 10 0 11 0 0 -10z m169 -31 l11 -32 0 -3 0 -4 -16 0 -16 0 5 20 5
20 -9 0 -9 0 0 15 0 15 9 0 9 0 11 -31z m128 -85 l-6 -6 -13 5 -13 5 19 1 19
1 -6 -6z m50 -21 l-7 -6 12 -14 11 -13 -16 6 -15 6 -6 14 -5 14 16 0 16 0 -6
-7z m38 -23 l18 -20 -5 0 -5 0 -18 20 -18 20 5 0 5 0 18 -20z m65 -55 l0 -5
-15 0 -15 0 0 9 0 9 -7 18 -6 17 21 -21 22 -22 0 -5z m50 -45 l0 -20 -9 0 -10
0 2 20 1 20 8 0 8 0 0 -20z m55 -60 l6 -10 -15 6 -16 6 0 4 0 4 9 0 10 0 6
-10z m-23 -144 l-5 -31 -7 20 -7 20 6 10 6 10 -3 20 -2 20 8 -19 8 -19 -4 -31z
m-1911 21 l-12 -12 7 18 6 18 6 -6 6 -5 -13 -13z m1956 -29 l-5 -13 -1 19 -1
19 6 -6 6 -6 -5 -13z m-1963 -27 l-7 -32 -4 5 -5 5 7 31 7 31 4 -4 4 -4 -6
-32z m1950 -37 l6 -16 0 -9 0 -8 -15 5 -15 6 0 19 0 19 9 0 9 0 6 -16z m19
-64 l5 -20 -9 6 -9 5 0 15 0 14 4 0 4 0 5 -20z"/>
<path d="M1180 3665 l0 -25 28 0 28 0 11 11 11 11 -5 14 -5 14 -34 0 -34 0 0
-25z"/>
<path d="M1320 3624 l0 -15 10 6 10 6 0 10 0 9 -10 0 -10 0 0 -16z"/>
<path d="M1360 3626 l0 -16 10 0 10 0 0 9 0 10 -10 6 -10 6 0 -15z"/>
<path d="M835 3600 l-6 -10 10 0 11 0 0 10 0 10 -4 0 -5 0 -6 -10z"/>
<path d="M402 3452 l-13 -17 7 15 7 15 -13 -12 -14 -13 7 -6 7 -7 20 9 19 9
-7 12 -8 12 -12 -17z"/>
<path d="M1618 3433 l12 -5 13 5 12 5 -25 0 -25 0 13 -5z"/>
<path d="M1124 3338 l-8 -12 12 -4 12 -4 -6 -9 -5 -9 10 0 10 0 7 12 8 12 -12
4 -12 4 6 9 5 9 -10 0 -10 0 -7 -12z"/>
<path d="M1966 3231 l-8 -12 6 -6 6 -6 6 6 6 6 -4 12 -4 13 -8 -13z"/>
<path d="M1575 3090 l6 -10 26 0 26 0 -4 4 -4 3 -28 7 -29 7 7 -11z"/>
<path d="M1237 3054 l-27 -26 5 -8 5 -8 -18 2 -17 1 -3 -25 -3 -25 16 20 16
20 9 -15 10 -15 0 14 0 13 14 -5 14 -5 11 24 11 24 25 -6 25 -6 0 12 0 12 28
-18 27 -18 14 -13 13 -14 4 4 4 3 -12 26 -12 26 -33 17 -32 18 -15 -12 -14
-12 -7 11 -6 10 -13 0 -13 0 -26 -26z"/>
<path d="M1410 3036 l0 -16 30 0 30 0 0 -12 0 -13 24 -30 25 -30 -18 55 -18
55 -36 3 -37 3 0 -15z"/>
<path d="M1507 3039 l11 -11 -5 -14 -5 -14 26 0 26 0 0 11 0 12 -17 13 -18 13
-14 1 -15 0 11 -11z"/>
<path d="M1560 3041 l0 -10 26 -20 27 -21 13 0 14 0 0 -9 0 -9 25 -4 25 -5 0
8 0 9 -17 1 -18 0 23 11 22 11 0 7 0 6 -34 1 -35 1 -23 16 -22 16 -13 0 -13 0
0 -9z"/>
<path d="M654 3015 l-19 -14 11 -1 12 0 12 15 12 15 -4 0 -4 0 -20 -15z"/>
<path d="M770 3015 l0 -16 -36 -57 -36 -57 -40 -38 -40 -37 -24 -6 -24 -6 -25
16 -25 16 0 -9 0 -10 12 -7 12 -8 36 -7 35 -8 -35 3 -35 3 -20 7 -20 8 19 -16
20 -16 43 0 42 0 52 43 51 42 35 57 35 57 -4 12 -4 12 -31 -54 -31 -54 -43
-40 -43 -40 41 47 42 46 30 61 31 60 0 6 0 5 -10 0 -10 0 0 -15z"/>
<path d="M1103 3017 l-42 -12 -8 -9 -8 -9 34 7 34 6 17 0 18 0 6 15 5 15 -7
-1 -7 -1 -42 -11z"/>
<path d="M1434 2965 l1 -45 4 12 4 11 18 -34 19 -34 -6 30 -7 30 -10 25 -10
25 2 13 2 12 -9 0 -9 0 1 -45z"/>
<path d="M710 2984 l-25 -14 21 0 22 0 12 15 12 15 -8 -1 -9 -1 -25 -14z"/>
<path d="M995 2990 l-6 -10 10 0 10 0 6 10 6 10 -10 0 -10 0 -6 -10z"/>
<path d="M141 2974 l1 -19 5 13 5 13 -6 6 -6 6 1 -19z"/>
<path d="M595 2954 l-27 -25 7 -7 8 -7 4 13 5 12 13 0 13 0 11 14 12 14 -9 6
-9 6 -28 -26z"/>
<path d="M850 2970 l0 -10 25 0 25 0 0 10 0 10 -25 0 -25 0 0 -10z"/>
<path d="M1300 2970 l0 -10 10 0 10 0 0 10 0 10 -10 0 -10 0 0 -10z"/>
<path d="M658 2963 l13 -5 6 6 6 6 -19 -1 -19 -1 13 -5z"/>
<path d="M1280 2950 l0 -10 11 0 10 0 -6 10 -6 10 -5 0 -4 0 0 -10z"/>
<path d="M1530 2902 l0 -11 26 -20 27 -21 16 0 16 0 -14 9 -13 9 11 3 11 4
-22 14 -23 14 14 -16 13 -17 -8 0 -8 0 -23 22 -23 21 0 -11z"/>
<path d="M1665 2877 l-40 -12 -3 -14 -3 -14 46 6 47 5 11 12 12 12 -25 -7 -25
-8 14 17 13 16 -3 -1 -4 -1 -40 -11z"/>
<path d="M1061 2864 l1 -19 5 13 5 13 -6 6 -6 6 1 -19z"/>
<path d="M2095 2790 l-6 -10 10 0 11 0 0 10 0 10 -4 0 -5 0 -6 -10z"/>
<path d="M2026 2754 l-6 -16 10 -16 9 -17 1 33 0 32 -4 0 -4 0 -6 -16z"/>
<path d="M449 2731 l-24 -19 8 -8 8 -8 25 27 25 27 -9 0 -10 0 -23 -19z"/>
<path d="M1290 2700 l-45 -19 23 0 23 -1 29 15 30 16 0 4 0 5 -7 -1 -8 -1 -45
-18z"/>
<path d="M1208 2693 l12 -5 13 5 12 5 -25 0 -25 0 13 -5z"/>
<path d="M393 2683 l-13 -5 0 -18 0 -18 -15 -12 -15 -13 1 -11 1 -11 -1 -18
-1 -18 -10 6 -10 6 -6 -18 -6 -18 -18 -40 -18 -40 -11 -59 -11 -59 1 -141 2
-141 9 85 9 85 -1 33 -1 33 11 62 11 62 22 65 22 65 15 12 15 11 -7 7 -7 7 30
48 29 47 0 7 0 6 -7 -1 -8 -1 -12 -5z"/>
<path d="M1198 2673 l12 -5 13 5 12 5 -25 0 -25 0 13 -5z"/>
<path d="M1248 2643 l13 -5 6 6 6 6 -19 -1 -19 -1 13 -5z"/>
<path d="M576 2615 l-28 -15 -33 -28 -33 -27 -27 -18 -26 -19 5 -15 6 -14 -18
-27 -17 -27 25 16 25 16 5 21 5 21 40 29 40 30 21 20 21 20 16 3 16 4 -7 12
-8 12 -28 -14z"/>
<path d="M626 2616 l6 -16 28 0 28 0 4 -11 4 -11 59 -8 60 -9 40 -9 40 -9 26
-11 27 -11 6 6 5 6 12 -27 12 -26 9 0 8 0 0 10 0 10 24 -15 24 -16 5 -19 5
-20 11 0 11 0 0 36 0 36 -16 -6 -16 -6 -5 20 -5 20 -45 20 -45 20 -59 9 -58
10 -22 11 -21 12 -22 3 -21 3 -63 7 -62 8 6 -17z"/>
<path d="M1374 2528 l-5 -8 -34 0 -35 0 -6 -27 -6 -28 -4 -12 -3 -13 12 0 13
0 11 29 11 29 24 -1 25 -2 -5 -14 -5 -13 19 5 19 6 55 10 55 10 73 -3 72 -2 0
8 0 8 13 -2 12 -3 5 -5 5 -6 46 -37 46 -37 7 -60 7 -60 9 0 10 0 0 63 0 62
-50 53 -51 52 -32 1 -32 1 -138 2 -138 3 -5 -9z m31 -18 l6 -10 -10 0 -11 0 0
10 0 10 4 0 5 0 6 -10z"/>
<path d="M641 2481 l-13 -8 43 -6 42 -5 6 -9 6 -8 35 -12 35 -11 31 0 31 -1
60 -15 61 -16 13 0 14 1 -30 16 -30 16 -70 19 -70 19 -50 10 -50 9 -25 4 -26
5 -13 -8z m174 -41 l6 -10 -8 0 -8 0 -15 10 -15 10 17 0 17 0 6 -10z"/>
<path d="M1335 2460 l-6 -10 10 0 10 0 6 10 6 10 -10 0 -10 0 -6 -10z"/>
<path d="M568 2453 l13 -5 6 6 6 6 -19 -1 -19 -1 13 -5z"/>
<path d="M1292 2405 l-12 -26 20 11 19 10 -5 15 -6 15 -2 0 -3 0 -11 -25z"/>
<path d="M1395 2411 l-40 -7 -29 -19 -30 -20 17 -3 18 -4 12 11 13 10 19 -1
20 0 33 7 32 8 -6 -17 -6 -16 27 10 28 11 75 -5 75 -4 6 -11 6 -10 28 -10 28
-11 -7 -12 -7 -11 12 7 11 7 -5 10 -6 9 23 9 23 9 9 -6 9 -5 -7 12 -8 12 -16
-2 -17 -1 -25 1 -25 1 14 9 13 9 -8 5 -9 5 -30 6 -30 6 -100 4 -100 3 -40 -6z"/>
<path d="M640 2370 l-15 -10 12 0 12 0 6 10 6 10 -3 0 -3 0 -15 -10z"/>
<path d="M1258 2353 l12 -5 13 5 12 5 -25 0 -25 0 13 -5z"/>
<path d="M588 2332 l-46 -17 -27 -29 -26 -28 3 -4 4 -3 20 12 21 12 34 22 34
23 25 -1 25 -2 -25 -4 -25 -5 -17 -15 -17 -16 9 -17 10 -18 35 -22 36 -22 6 6
7 6 -29 30 -29 30 9 7 8 8 5 -15 5 -15 28 -25 27 -26 41 -2 41 -3 0 10 0 9 19
-5 19 -5 21 11 21 12 0 -11 0 -10 18 0 18 0 13 -12 13 -13 -4 20 -3 20 -13 1
-12 2 -10 1 -10 1 1 8 1 7 -1 17 -1 18 -25 6 -25 6 0 9 0 9 11 0 11 0 30 -21
29 -21 4 4 5 4 -29 22 -30 22 -43 15 -43 15 -65 -1 -65 -1 -47 -16z m172 -34
l0 -23 9 14 9 13 5 -13 5 -14 1 17 1 16 -10 5 -10 6 12 -3 13 -3 3 -20 3 -21
-24 -26 -24 -26 -20 0 -20 0 -23 25 -23 25 6 7 7 6 0 -11 0 -12 29 0 29 0 4
18 5 19 -40 -1 -40 -1 -4 13 -5 12 51 0 51 0 0 -22z m-43 -24 l-6 -6 -13 5
-13 5 19 1 19 1 -6 -6z m117 -23 l6 -9 -15 -5 -14 -6 6 15 5 14 3 0 4 0 5 -9z"/>
<path d="M1495 2335 l10 -4 63 -3 62 -4 -12 8 -13 8 -60 -1 -60 -1 10 -3z"/>
<path d="M1446 2321 l-6 -9 18 -7 17 -6 -63 -28 -62 -28 -26 -24 -26 -24 39
-11 38 -11 28 10 28 9 -5 14 -5 14 4 0 4 0 16 -30 16 -30 15 0 15 0 -5 -9 -6
-9 16 -6 16 -6 29 0 29 0 0 10 0 10 -32 -5 -33 -5 32 10 32 10 18 23 18 24 12
-4 12 -4 -6 -17 -7 -17 15 11 14 12 20 -8 21 -8 13 -16 13 -16 28 0 28 0 -5
20 -5 21 -28 29 -28 30 2 16 1 17 -14 5 -14 5 7 -11 6 -10 -61 19 -61 19 -38
0 -38 0 -17 6 -17 7 14 8 13 9 -17 0 -17 0 -5 -9z m85 -83 l1 -33 5 13 5 12
14 0 14 0 0 14 0 14 -7 5 -8 4 12 -3 12 -3 35 -7 36 -6 47 -44 46 -44 -7 0 -8
0 -41 34 -42 33 -32 11 -32 11 -6 -19 -6 -19 -26 -20 -25 -20 -29 15 -29 15 0
34 0 35 35 0 35 0 1 -32z m-117 7 l-19 -14 -14 -1 -15 0 20 15 19 14 14 1 15
0 -20 -15z m-51 -28 l5 -14 -13 0 -13 0 5 14 5 13 3 0 3 0 5 -13z"/>
<path d="M1485 2240 l-6 -10 6 -10 6 -10 15 0 14 0 0 20 0 20 -14 0 -15 0 -6
-10z"/>
<path d="M1513 2313 l17 -4 18 4 17 5 -35 0 -35 0 18 -5z"/>
<path d="M1615 2300 l20 -9 15 0 15 -1 -15 10 -15 10 -20 -1 -20 0 20 -9z"/>
<path d="M1060 2285 l0 -15 10 0 10 0 0 15 0 15 -10 0 -10 0 0 -15z"/>
<path d="M1709 2282 l11 -21 11 -7 11 -6 -11 20 -11 21 -11 7 -11 6 11 -20z"/>
<path d="M185 2240 l6 -10 5 0 4 0 0 10 0 10 -11 0 -10 0 6 -10z"/>
<path d="M550 2241 l0 -9 15 -6 15 -5 0 8 0 9 -15 6 -15 5 0 -8z"/>
<path d="M920 2241 l0 -10 10 -6 10 -6 0 15 0 16 -10 0 -10 0 0 -9z"/>
<path d="M1405 2139 l-6 -9 13 -4 13 -4 34 -11 34 -11 9 0 9 0 -6 10 -6 10
-17 0 -17 0 -27 14 -28 15 -5 -10z"/>
<path d="M237 2063 l-7 -6 2 -61 1 -61 7 65 6 65 -1 3 -2 2 -6 -7z"/>
<path d="M1860 1968 l0 -41 4 4 3 4 6 38 6 37 -10 0 -9 0 0 -42z"/>
<path d="M252 1945 l0 -50 8 -30 8 -30 2 30 2 30 -2 10 -3 10 -7 40 -7 40 -1
-50z"/>
<path d="M270 1816 l0 -15 10 -6 10 -6 0 15 0 15 -10 6 -10 6 0 -15z"/>
<path d="M1243 1823 l-13 -5 -30 -45 -31 -45 6 -7 7 -6 17 21 18 22 34 5 34 5
18 7 17 7 0 14 0 14 -15 0 -15 0 0 10 0 10 -17 -1 -18 -1 -12 -5z m22 -33 l-6
-10 -10 0 -10 0 6 10 6 10 10 0 10 0 -6 -10z"/>
<path d="M964 1796 l-19 -15 11 -10 10 -11 45 -6 44 -6 12 -10 12 -10 12 -36
11 -37 8 -8 7 -8 6 20 5 21 -11 0 -12 1 18 10 18 11 -29 29 -29 29 -33 25 -34
25 -16 0 -16 0 -20 -14z m60 -25 l6 -9 -20 5 -20 5 0 4 0 4 14 0 15 0 5 -9z"/>
<path d="M282 1760 l0 -25 5 13 5 12 -5 13 -5 12 0 -25z"/>
<path d="M923 1736 l28 -26 37 2 37 1 -35 4 -34 5 -31 20 -30 20 28 -26z"/>
<path d="M1831 1744 l1 -19 5 13 5 13 -6 6 -6 6 1 -19z"/>
<path d="M1225 1730 l-18 -20 16 0 16 0 5 9 6 9 20 -5 20 -5 0 -9 0 -9 -10 0
-10 0 0 -25 0 -25 10 0 10 0 -1 8 -1 7 1 9 1 8 16 -12 15 -13 26 -3 26 -3 -27
28 -26 27 11 11 11 11 -31 7 -31 6 -10 -6 -10 -6 0 10 0 11 -8 0 -9 0 -18 -20z"/>
<path d="M1220 1690 l15 -10 8 0 7 0 0 10 0 10 -22 0 -23 0 15 -10z"/>
<path d="M1810 1660 l0 -20 4 0 4 0 5 20 5 20 -9 0 -9 0 0 -20z"/>
<path d="M1155 1659 l-7 -10 4 -4 4 -4 22 6 22 5 0 9 0 9 -19 0 -20 0 -6 -11z"/>
<path d="M1310 1635 l0 -14 37 -36 36 -35 26 -1 26 -1 48 -3 49 -4 -13 15 -12
14 -19 -6 -20 -6 -44 17 -43 16 -6 17 -5 18 -30 11 -30 11 0 -13z"/>
<path d="M906 1602 l-17 -33 -10 7 -10 6 6 19 6 19 -6 0 -7 0 -19 -22 -18 -23
-1 -14 0 -14 19 17 19 17 6 -10 7 -11 -12 -22 -12 -23 23 20 22 20 15 28 14
28 -4 12 -4 12 -17 -33z"/>
<path d="M1157 1590 l-5 -20 9 0 9 0 0 20 0 20 -4 0 -4 0 -5 -20z"/>
<path d="M1465 1590 l6 -10 15 0 15 0 -6 10 -6 10 -15 0 -15 0 6 -10z"/>
<path d="M780 1579 l0 -10 10 6 10 6 0 5 0 4 -10 0 -10 0 0 -11z"/>
<path d="M1271 1548 l-1 -16 -40 4 -40 4 0 -14 0 -14 -20 -5 -20 -5 0 15 0 15
-15 -6 -15 -5 0 9 0 10 -15 0 -15 0 -20 -20 -20 -20 0 -22 0 -21 18 16 19 17
16 0 16 0 6 -10 6 -10 37 6 37 6 16 14 16 14 7 -7 7 -7 8 12 7 12 22 -20 22
-21 0 7 0 7 19 -17 20 -18 9 6 9 5 24 -26 24 -26 -27 7 -27 6 -5 -9 -6 -9 16
-6 16 -6 18 0 19 0 4 18 3 17 -12 26 -13 27 -16 5 -15 6 -15 -5 -15 -6 0 17 0
16 -10 -6 -10 -6 0 11 0 12 -15 -6 -16 -6 -9 23 -9 22 0 -17z"/>
<path d="M730 1540 l0 -10 9 0 10 0 6 10 6 10 -15 0 -16 0 0 -10z"/>
<path d="M1464 1515 l17 -13 19 5 20 5 14 -33 14 -33 -15 -38 -15 -38 15 -37
16 -38 2 15 2 15 2 23 2 22 -10 0 -10 0 18 20 18 20 -6 46 -5 46 -11 11 -11
11 -47 1 -46 2 17 -12z"/>
<path d="M674 1505 l-19 -14 17 -1 17 0 6 11 7 10 -4 5 -4 4 -20 -15z"/>
<path d="M720 1499 l0 -10 10 6 10 6 0 5 0 4 -10 0 -10 0 0 -11z"/>
<path d="M894 1477 l-6 -19 4 -3 4 -4 44 10 45 10 30 -6 30 -5 -22 15 -21 15
-51 3 -51 3 -6 -19z"/>
<path d="M1214 1475 l-19 -14 11 -1 10 0 20 15 19 14 -11 1 -10 0 -20 -15z"/>
<path d="M658 1438 l-17 -38 7 0 7 0 10 8 10 7 17 26 17 27 -17 4 -18 5 -16
-39z"/>
<path d="M1090 1466 l0 -14 25 -4 25 -5 0 8 0 8 -19 11 -20 10 -5 0 -6 0 0
-14z"/>
<path d="M839 1468 l0 -3 -5 -23 -4 -24 12 4 13 5 3 21 3 22 -10 0 -11 0 -1
-2z"/>
<path d="M871 1454 l1 -19 5 13 5 13 -6 6 -6 6 1 -19z"/>
<path d="M1720 1460 l0 -10 11 0 10 0 -6 10 -6 10 -5 0 -4 0 0 -10z"/>
<path d="M1067 1403 l33 -4 37 4 38 4 -70 0 -70 0 32 -4z"/>
<path d="M715 1389 l-7 -10 5 -5 4 -4 13 15 12 15 -10 0 -11 0 -6 -11z"/>
<path d="M1249 1395 l-5 -5 -93 -4 -92 -4 -6 -6 -6 -6 -29 0 -29 0 6 -10 6
-10 25 0 24 0 0 10 0 11 18 -10 17 -9 50 3 50 3 25 5 25 6 39 6 39 5 55 -15
54 -16 30 6 29 7 14 -19 13 -18 8 7 7 8 -13 15 -12 15 -32 0 -31 0 -49 15 -49
15 -42 0 -42 0 -4 -5z"/>
<path d="M1473 1286 l16 -24 -7 -7 -7 -7 -1 -38 -1 -39 12 12 12 12 1 15 1 15
6 26 7 26 -17 16 -16 17 -11 0 -10 0 15 -24z"/>
<path d="M400 1248 l0 -43 10 -15 10 -15 0 48 0 47 11 0 10 0 -6 10 -6 10 -15
0 -14 0 0 -42z"/>
<path d="M1533 1274 l-6 -15 9 -9 9 -9 1 25 2 24 -4 0 -5 0 -6 -16z"/>
<path d="M1760 1269 l0 -10 10 6 10 6 0 5 0 4 -10 0 -10 0 0 -11z"/>
<path d="M1580 1260 l0 -10 10 0 10 0 0 10 0 10 -10 0 -10 0 0 -10z"/>
<path d="M515 1250 l-6 -10 10 0 11 0 0 10 0 10 -4 0 -5 0 -6 -10z"/>
<path d="M680 1251 l0 -10 10 -6 10 -6 0 10 0 10 -10 6 -10 6 0 -10z"/>
<path d="M1000 1250 l-45 -5 24 -13 23 -14 142 1 141 2 15 14 14 15 -44 1 -45
1 -90 2 -90 2 -45 -6z"/>
<path d="M710 1210 l0 -10 11 0 10 0 -6 10 -6 10 -5 0 -4 0 0 -10z"/>
<path d="M1315 1210 l-6 -10 15 0 16 0 0 10 0 10 -9 0 -10 0 -6 -10z"/>
<path d="M1540 1200 l0 -20 8 0 8 0 0 20 0 20 -8 0 -8 0 0 -20z"/>
<path d="M1267 1199 l-19 -11 -18 5 -19 5 -18 -13 -17 -13 13 -16 14 -17 -11
-11 -12 -12 0 -18 0 -18 20 0 20 0 0 11 0 11 -16 -6 -16 -6 4 12 4 12 25 7 24
7 -16 1 -16 1 0 15 0 15 12 0 12 0 31 16 32 15 0 10 0 9 -7 0 -8 -1 -18 -10z"/>
<path d="M980 1172 l0 -8 12 -12 12 -12 8 0 8 0 0 8 0 7 -20 13 -20 12 0 -8z"/>
<path d="M1540 1151 l-10 -20 0 -6 0 -6 9 5 9 6 5 20 5 20 -4 0 -3 0 -11 -19z"/>
<path d="M1422 1130 l-23 -10 -15 -36 -15 -36 7 -17 6 -16 5 15 4 15 9 20 8
20 6 18 5 17 16 0 15 0 0 10 0 10 -2 -1 -3 0 -23 -9z"/>
<path d="M816 1105 l16 -25 11 0 10 0 -23 25 -23 25 -4 0 -3 0 16 -25z"/>
<path d="M560 1114 l1 -9 30 -33 30 -34 4 4 3 3 -34 39 -34 39 0 -9z"/>
<path d="M1252 1085 l11 -25 9 0 8 0 0 6 0 5 -10 20 -11 19 -9 0 -10 0 12 -25z"/>
<path d="M1096 1084 l-6 -16 12 4 12 4 4 12 4 12 -10 0 -10 0 -6 -16z"/>
<path d="M1161 1084 l1 -19 5 13 5 13 -6 6 -6 6 1 -19z"/>
<path d="M1100 1029 l0 -10 10 6 10 6 0 5 0 4 -10 0 -10 0 0 -11z"/>
<path d="M1228 988 l17 -52 3 23 4 23 -11 11 -11 11 0 18 0 18 -9 0 -9 0 16
-52z"/>
<path d="M63 985 l0 -40 4 23 4 22 -4 18 -5 17 1 -40z"/>
<path d="M1196 994 l-6 -17 5 -5 5 -5 6 17 6 17 -5 5 -5 5 -6 -17z"/>
<path d="M1241 914 l1 -19 5 13 5 13 -6 6 -6 6 1 -19z"/>
<path d="M380 872 l0 -9 20 -18 20 -18 0 9 -1 9 -13 18 -13 17 -7 0 -6 0 0 -8z"/>
<path d="M1252 625 l-54 -45 14 0 13 1 15 12 15 13 29 32 30 32 -5 0 -4 0 -53
-45z"/>
<path d="M1263 598 l-20 -23 -8 -15 -8 -15 22 20 23 20 9 17 10 18 -4 0 -4 0
-20 -22z"/>
<path d="M1179 503 l-14 -18 18 14 17 13 0 4 0 4 -4 0 -4 0 -13 -17z"/>
</g>
</svg>
