<?xml version="1.0" standalone="no"?>
<!DOCTYPE svg PUBLIC "-//W3C//DTD SVG 20010904//EN"
 "http://www.w3.org/TR/2001/REC-SVG-20010904/DTD/svg10.dtd">
<svg version="1.0" xmlns="http://www.w3.org/2000/svg"
 width="212.000000pt" height="434.000000pt" viewBox="0 0 212.000000 434.000000"
 preserveAspectRatio="xMidYMid meet">
<metadata>
Created by potrace 1.16, written by Peter Selinger 2001-2019
</metadata>
<g transform="translate(0.000000,434.000000) scale(0.100000,-0.100000)"
fill="#000000" stroke="none">
<path d="M1300 3745 c19 -23 2 -35 -50 -35 l-48 0 -6 13 -5 12 -15 -19 c-8
-10 -17 -24 -19 -30 l-4 -11 -18 15 -18 15 12 -24 c7 -12 11 -32 8 -42 -8 -31
12 -22 34 16 l21 35 23 0 c13 0 27 -5 31 -12 l7 -12 -21 -14 c-12 -8 -22 -19
-22 -24 l0 -10 32 8 c18 3 38 13 44 21 5 9 19 13 30 11 l19 -3 0 -20 0 -20
-33 -16 -34 -15 16 -13 c9 -8 16 -20 16 -28 l0 -14 15 15 c8 8 15 19 15 24 0
5 6 15 14 22 8 6 16 23 18 37 4 36 25 40 39 9 7 -14 15 -23 20 -21 4 3 11 1
14 -5 4 -6 15 -8 25 -5 l18 6 27 -28 26 -28 -5 -17 c-2 -10 0 -21 5 -24 l9 -5
0 39 0 39 -18 16 c-10 10 -24 17 -30 17 -7 0 -12 4 -12 9 0 21 19 20 51 -2
l34 -23 3 -39 4 -40 14 40 14 40 -37 32 c-38 33 -67 41 -78 23 l-6 -10 -17 9
c-9 5 -30 13 -47 18 l-30 8 -3 23 c-2 12 -8 22 -13 22 -6 0 -8 -4 -4 -9 3 -5
1 -12 -5 -16 -6 -3 -13 2 -17 12 -7 19 -32 42 -47 43 -5 0 -3 -7 4 -15z"/>
<path d="M903 3713 l-32 -16 -12 -29 -11 -28 -20 0 c-10 0 -21 -7 -24 -15 -7
-17 -34 -21 -34 -5 0 12 -37 50 -48 50 -33 0 -46 -62 -16 -74 l15 -6 -6 -20
-6 -20 15 6 16 6 0 -21 0 -21 14 0 c8 0 18 5 21 10 4 6 11 8 16 5 5 -4 9 0 9
8 0 8 7 28 16 46 l16 33 11 -11 c6 -6 20 -11 31 -11 l20 0 -12 12 -11 11 10
18 c25 48 95 60 142 25 18 -12 39 -26 48 -29 l17 -6 -26 40 -25 39 -24 -6 -23
-6 0 16 0 16 -27 -1 c-16 0 -42 -7 -60 -16z"/>
<path d="M636 3675 c-14 -13 -26 -29 -26 -35 0 -5 -11 -10 -25 -10 l-24 0 -11
-20 c-6 -11 -15 -18 -21 -14 -15 9 -39 -16 -39 -42 0 -29 -16 -39 -28 -18 l-9
17 -8 -13 -8 -13 17 -13 c10 -7 15 -17 12 -23 l-6 -10 -34 6 -33 5 -56 -54
-57 -55 0 -27 0 -27 -15 -5 c-8 -4 -15 -10 -15 -16 0 -5 5 -6 10 -3 5 3 10 -1
10 -9 0 -8 -9 -20 -19 -26 l-19 -10 -5 13 -5 12 -11 -15 c-5 -8 -31 -36 -56
-62 l-46 -47 2 -93 c1 -51 -1 -136 -5 -188 l-8 -95 22 -85 c12 -47 24 -96 27
-110 4 -13 11 -30 18 -36 6 -6 17 -38 24 -70 7 -33 21 -97 32 -143 l20 -84
-10 -10 -10 -10 -27 22 c-15 11 -37 21 -50 21 l-24 0 0 -15 c0 -8 -5 -15 -11
-15 l-12 0 5 -70 c3 -38 10 -76 16 -83 6 -7 14 -33 17 -57 9 -65 24 -118 50
-175 13 -27 29 -70 36 -95 7 -25 24 -63 38 -85 26 -40 35 -63 67 -180 9 -33
27 -79 41 -103 l25 -42 -6 -26 c-4 -14 -27 -47 -51 -73 -56 -60 -68 -90 -66
-171 l2 -65 24 -53 c72 -158 252 -311 437 -372 72 -24 83 -25 46 -4 -29 15
-37 34 -16 34 6 0 8 3 5 7 -4 3 -16 -2 -27 -12 l-20 -18 -6 17 c-3 9 -14 16
-23 16 -9 0 -41 13 -71 28 -52 26 -72 41 -174 134 l-41 36 -23 64 c-12 34 -22
73 -22 85 0 12 -5 25 -11 29 l-11 7 4 69 5 69 27 28 26 27 0 25 c0 13 4 30 9
38 l9 14 13 -9 14 -8 -13 17 c-15 18 -8 37 14 37 l14 0 0 21 0 21 19 5 20 5
10 29 10 29 28 12 28 12 -22 3 -23 4 0 19 c0 22 -25 72 -33 64 -3 -3 -15 -3
-26 1 l-21 6 0 20 c0 10 -4 19 -10 19 -5 0 -10 -9 -10 -20 0 -11 5 -20 10 -20
6 0 10 -12 10 -27 l1 -28 10 18 c5 9 17 17 24 17 l15 0 0 -30 c0 -16 5 -30 10
-30 6 0 10 -8 10 -18 l0 -18 -35 -17 c-19 -9 -35 -13 -35 -8 0 5 6 12 13 14
l12 5 -19 1 c-10 1 -24 -6 -31 -16 l-12 -16 -12 8 -13 7 6 24 6 24 -17 26 -17
26 17 10 c21 11 22 34 1 42 l-16 6 5 14 c3 8 -1 20 -8 26 l-15 12 6 23 5 22
-22 6 -22 6 6 20 5 21 -14 0 -14 0 0 34 0 34 -13 5 -13 5 -12 65 -12 64 5 109
c2 60 2 100 -1 89 -4 -11 -10 -25 -16 -32 l-9 -11 10 -6 10 -7 -6 -52 c-3 -29
-10 -56 -15 -62 l-9 -10 -9 15 c-5 8 -10 25 -10 38 0 12 -4 22 -10 22 -5 0
-10 13 -10 28 0 15 -4 32 -9 37 -5 6 -11 39 -15 73 l-6 64 43 -7 c23 -4 47
-12 54 -17 l12 -9 5 33 c3 18 7 72 10 119 5 91 8 101 66 224 21 44 44 97 52
119 7 21 19 41 25 43 7 3 13 11 13 18 l0 14 -27 3 c-14 2 -28 9 -31 16 l-4 12
21 0 22 0 8 23 9 22 -14 8 c-8 4 -14 13 -14 19 l0 10 21 -5 20 -5 6 14 c3 8
11 14 18 14 7 0 16 7 19 16 l6 17 45 -7 45 -6 28 41 c15 23 37 52 48 64 l21
23 -21 6 c-37 10 -64 6 -70 -10 -3 -8 -10 -13 -15 -9 -5 3 -12 1 -16 -5 -3 -5
-17 -10 -31 -10 l-24 0 0 -20 c0 -11 -4 -20 -9 -20 -5 0 -8 -8 -7 -17 l1 -18
-22 -3 -23 -3 0 20 c0 12 -5 21 -11 21 -5 0 -7 -4 -4 -10 3 -5 1 -19 -5 -30
l-11 -20 -23 6 -22 5 -12 -14 -12 -14 15 -13 c22 -18 18 -30 -9 -30 l-25 0 -4
43 -4 42 -1 -42 -2 -43 -17 0 -18 -1 18 -10 c9 -5 17 -16 17 -23 0 -8 7 -27
15 -42 17 -33 19 -72 6 -93 l-10 -15 -26 12 c-15 7 -29 22 -32 33 l-6 20 -28
-6 -28 -6 -3 28 -3 28 -17 -3 c-10 -2 -18 2 -18 8 0 6 5 8 10 5 l10 -6 -6 38
-6 38 11 27 10 27 26 7 27 7 -4 56 c-1 31 1 57 5 59 22 7 39 -1 47 -23 l10
-25 20 0 c11 0 20 -4 20 -10 0 -5 11 -10 24 -10 13 0 26 -5 28 -12 l4 -12 8
12 7 12 -10 0 c-5 0 -14 15 -20 33 l-11 34 -18 -1 c-9 0 -29 1 -43 2 l-27 2
-5 21 -6 22 -15 -6 c-29 -11 -53 60 -32 97 25 46 64 60 64 24 0 -13 4 -39 10
-58 l9 -35 7 18 c3 9 8 25 11 34 l6 16 11 -11 11 -11 -13 -16 -12 -15 29 6 29
6 13 -16 c7 -8 19 -12 27 -9 l14 5 7 -18 c4 -11 16 -26 28 -36 l20 -16 8 14
c4 8 5 30 1 50 l-7 37 -52 -6 -53 -5 -30 34 c-17 19 -35 35 -39 35 -4 0 -7 9
-5 20 2 11 -2 26 -8 34 l-11 13 11 7 11 7 -6 29 c-8 36 -2 36 33 4 l27 -26
-17 -13 c-10 -7 -15 -16 -11 -19 6 -7 63 -10 63 -4 0 10 -32 67 -41 72 -14 9
-11 19 16 59 13 20 20 36 15 36 -6 0 -10 7 -10 15 0 22 21 18 27 -5 3 -11 9
-20 13 -20 4 0 10 -14 14 -31 l6 -30 22 3 23 3 0 20 c0 11 4 26 8 33 l9 13 19
-17 c23 -21 24 -11 3 26 l-17 28 6 16 c4 9 20 19 36 22 l29 6 -1 27 -2 26 15
0 15 0 -2 -26 -1 -26 29 29 c32 33 35 39 17 36 l-13 -3 2 23 c2 12 -2 22 -7
22 -6 0 -10 9 -10 21 l0 21 30 11 c31 12 40 27 16 27 -7 0 -25 -11 -40 -25z
m-448 -520 l-2 -45 -12 -4 c-6 -2 -14 -14 -17 -26 l-5 -21 14 -6 c17 -6 19
-39 3 -49 -15 -9 -30 16 -23 39 3 9 1 17 -4 17 -15 0 -24 32 -12 44 5 5 10 19
10 31 0 23 26 65 40 65 5 0 9 -20 8 -45z m56 -460 c9 -13 16 -31 16 -40 0 -8
5 -15 10 -15 13 0 13 -26 -2 -67 -7 -18 -18 -33 -26 -33 l-15 0 6 40 5 41 -12
-10 c-18 -15 -27 -3 -20 26 l6 23 -15 24 c-9 13 -13 26 -10 30 14 14 42 5 57
-19z"/>
<path d="M1630 3631 c0 -5 10 -11 22 -13 l23 -3 18 -39 c10 -21 16 -45 13 -53
l-6 -14 -62 2 -63 3 -3 -23 -4 -24 26 7 26 6 0 -14 c0 -8 10 -18 21 -21 l22
-7 9 17 10 16 19 -17 c10 -9 19 -24 19 -32 l0 -15 19 17 c24 22 41 13 41 -20
l0 -24 14 0 c7 0 19 -6 25 -13 l11 -14 -10 -31 -9 -32 25 -27 c13 -14 24 -22
24 -16 0 5 -3 13 -7 17 -9 8 -13 96 -4 96 10 0 11 59 1 65 -6 4 -10 10 -10 15
l0 9 30 -10 30 -11 0 -18 c0 -11 -4 -21 -9 -24 l-9 -6 8 -36 c5 -20 14 -40 21
-44 l12 -8 -8 -18 c-4 -11 -8 -28 -9 -39 -1 -10 -11 -25 -24 -31 l-23 -11 25
-5 26 -5 0 11 c0 6 7 25 16 41 9 17 23 42 31 58 8 15 21 27 28 27 22 0 27 -34
10 -66 -8 -16 -15 -45 -15 -65 l0 -36 -20 -18 c-25 -23 -25 -41 -1 -55 28 -14
57 -12 71 5 l12 15 -22 0 -22 0 6 16 c3 9 6 18 6 20 0 2 6 4 13 4 14 0 40 37
44 60 1 8 4 26 7 40 4 14 4 19 0 13 -8 -18 -34 -16 -34 2 0 8 7 15 15 15 21 0
19 16 -4 32 -11 8 -25 26 -32 41 -7 15 -17 27 -23 27 -5 0 -24 14 -40 30 -17
17 -46 44 -64 60 l-33 30 -31 -16 c-42 -22 -50 -16 -93 68 -21 40 -42 79 -47
86 -12 14 -58 17 -58 3z"/>
<path d="M982 3616 l-22 -12 12 -12 c29 -29 69 -12 45 19 l-13 17 -22 -12z"/>
<path d="M1236 3565 l-5 -15 -26 0 c-28 0 -32 -14 -11 -36 19 -18 37 -18 30 0
-7 19 14 30 30 17 l13 -11 -5 25 c-5 31 -18 40 -26 20z"/>
<path d="M1410 3570 c0 -5 -7 -10 -15 -10 l-15 0 0 -19 c0 -10 7 -22 16 -25
l16 -6 -5 -20 -5 -20 30 -25 c25 -22 63 -37 45 -18 -4 3 -1 16 7 28 l14 22 -8
13 c-4 7 -12 10 -18 6 -28 -17 -56 26 -32 50 l10 10 -20 12 -20 12 0 -10z"/>
<path d="M942 3548 c-19 -19 -14 -24 29 -25 l41 -2 -17 19 c-21 23 -36 25 -53
8z"/>
<path d="M685 3460 l-30 -5 1 -13 c1 -6 2 -17 3 -22 l1 -10 25 16 c14 9 32 14
40 10 l15 -5 0 -35 0 -34 28 -4 28 -4 18 23 17 23 -16 0 c-8 0 -15 5 -15 10 0
6 -9 10 -20 10 l-20 0 0 15 0 15 -19 0 c-11 0 -21 4 -23 8 -1 4 -16 5 -33 2z"/>
<path d="M1303 3435 l2 -30 -22 1 -23 1 0 -14 c0 -19 29 -28 43 -14 6 6 21 11
33 11 12 0 25 7 28 15 l6 16 -28 12 c-15 6 -30 16 -34 22 -4 5 -6 -3 -5 -20z"/>
<path d="M844 3427 c5 -53 56 -77 56 -26 l0 27 -17 6 c-10 3 -23 9 -30 12
l-12 5 3 -24z"/>
<path d="M1034 3443 c-26 -5 -60 -40 -50 -50 4 -4 15 -2 24 5 9 7 27 16 39 21
11 6 24 15 28 20 l6 11 -13 -1 c-7 -1 -23 -4 -34 -6z"/>
<path d="M587 3374 c-39 -39 -41 -42 -29 -62 l8 -12 26 27 c21 23 47 83 35 83
-1 0 -19 -16 -40 -36z"/>
<path d="M1119 3392 c-9 -2 -19 -14 -21 -27 l-5 -24 13 -5 c6 -2 19 3 27 12
l15 17 -7 15 c-3 9 -13 14 -22 12z"/>
<path d="M646 3306 c-9 -19 -23 -36 -31 -40 -22 -8 -18 -26 5 -26 l20 0 0 20
0 20 15 0 15 0 0 20 c0 11 5 20 10 20 6 0 10 5 10 10 0 23 -29 7 -44 -24z"/>
<path d="M851 3327 c-1 -10 -8 -20 -16 -23 -22 -9 -18 -27 9 -53 l24 -22 -5
48 c-5 53 -11 77 -12 50z"/>
<path d="M445 3298 l7 -28 -16 -6 -16 -6 0 -29 0 -29 21 0 21 0 -6 25 -6 25
12 20 13 20 -18 17 -18 18 6 -27z"/>
<path d="M1220 3303 c0 -3 8 -12 18 -19 l17 -13 -17 -6 c-10 -4 -18 -13 -18
-21 l0 -14 30 0 30 0 0 28 0 28 -30 11 c-16 6 -30 9 -30 6z"/>
<path d="M1347 3283 c-51 -8 -43 -63 9 -63 l24 0 0 14 c0 31 23 26 73 -13 l52
-40 7 17 c27 68 -43 104 -165 85z"/>
<path d="M550 3231 c0 -7 -7 -20 -16 -28 l-16 -16 17 -10 16 -9 14 19 c18 23
18 28 0 43 l-15 12 0 -11z"/>
<path d="M1533 3183 l-13 -27 20 -21 c11 -12 17 -25 13 -28 -3 -4 10 -7 30 -7
48 0 47 15 -3 40 l-40 21 6 24 c8 33 2 32 -13 -2z"/>
<path d="M645 3178 c-17 -25 -20 -58 -5 -58 6 0 10 -7 10 -15 l0 -15 38 1 37
0 -24 10 -23 9 5 18 c2 9 8 24 11 32 l6 15 -19 12 -20 13 -16 -22z"/>
<path d="M1072 3162 l-42 -3 5 -10 c4 -5 19 -9 35 -9 16 0 32 -5 36 -11 10
-17 -17 -59 -38 -59 -10 0 -18 -5 -18 -10 0 -6 -7 -13 -15 -17 l-16 -5 -20 18
-20 18 -42 -15 c-23 -8 -53 -13 -66 -11 l-23 4 -6 20 -5 20 -8 -14 c-5 -7 -9
-19 -9 -25 l0 -13 26 0 c32 0 66 -18 59 -31 -4 -5 -1 -10 4 -10 42 -5 84 -3
135 8 32 6 65 9 73 6 l14 -6 14 19 15 19 13 -17 13 -16 27 5 28 6 -5 13 c-7
19 22 38 63 40 l36 1 34 -23 35 -24 16 15 c9 8 23 15 31 15 8 0 20 5 26 11
l12 12 17 -7 c9 -4 14 -9 11 -13 -4 -3 1 -12 11 -19 l17 -12 12 10 12 10 31
-22 32 -22 38 5 39 5 20 -15 c12 -8 21 -21 21 -29 0 -8 5 -14 11 -14 6 0 9 -6
6 -12 -2 -7 4 -25 15 -40 10 -15 26 -51 35 -80 15 -51 20 -84 28 -193 6 -64
20 -142 34 -178 13 -34 15 -183 2 -191 -6 -4 -8 -97 -2 -138 1 -4 11 -8 23
-10 31 -4 33 -24 4 -51 l-25 -23 -10 -63 c-6 -35 -14 -68 -20 -74 -5 -7 -12
-30 -16 -52 -4 -22 -11 -44 -15 -50 -4 -5 -7 -37 -6 -70 l1 -60 -19 -22 -19
-22 6 -46 7 -45 -10 0 c-6 0 -10 6 -10 13 l-1 12 -15 -20 -15 -20 6 -32 6 -33
-15 0 c-8 0 -26 -10 -40 -23 l-25 -23 5 -21 c3 -11 1 -24 -5 -27 -5 -4 -8 -13
-4 -21 l5 -15 -16 0 c-9 0 -16 -5 -16 -10 0 -6 -10 -15 -22 -20 l-23 -9 23 0
22 -1 -6 -27 c-3 -16 -8 -34 -10 -41 l-4 -13 -22 15 c-30 21 -45 20 -26 -1 18
-21 17 -48 -1 -82 l-13 -23 14 4 c7 3 18 14 24 26 6 12 18 30 26 39 8 10 18
25 22 33 4 8 12 24 19 35 49 80 70 121 102 200 21 50 42 96 48 104 14 17 16
25 32 151 12 97 36 181 57 205 4 5 8 15 8 23 0 7 11 30 25 50 l25 37 0 41 0
41 -24 11 -25 11 -6 48 c-3 26 -8 56 -10 66 -2 10 5 52 16 93 l19 74 40 58
c22 31 40 62 40 67 1 6 14 25 29 43 l29 34 -6 20 -5 21 16 -6 16 -6 4 12 c2 7
-3 17 -12 24 l-16 12 13 12 c16 17 15 51 -3 75 l-14 19 6 -36 5 -36 -11 -22
c-15 -27 -27 -20 -36 20 -4 17 -16 40 -26 50 l-19 19 0 -19 c0 -11 5 -23 11
-27 6 -3 8 -16 5 -28 l-5 -21 15 -19 c20 -28 17 -43 -7 -41 -26 2 -38 21 -31
49 l5 21 -30 -32 -31 -33 -6 16 c-9 24 -7 62 3 66 11 4 18 104 8 114 -4 4 -7
-12 -7 -35 l0 -42 -17 3 -18 3 -3 55 -3 55 -21 22 -21 22 7 16 c3 9 15 19 26
22 23 6 24 10 8 45 l-13 26 -15 -41 -16 -42 -14 0 -15 0 3 25 c2 14 5 48 8 75
l4 50 -9 -21 c-16 -38 -61 -35 -61 3 0 7 -9 13 -19 13 -11 0 -21 5 -23 12 l-4
12 -24 -17 -23 -16 27 -7 27 -6 -3 -17 c-2 -9 -10 -15 -18 -14 -59 9 -116 25
-130 38 -9 8 -20 12 -23 9 -4 -4 -9 0 -13 9 -9 24 -74 59 -116 63 l-38 4 0
-19 c0 -25 -18 -37 -33 -22 l-11 11 12 12 c17 17 15 28 -4 28 -9 0 -18 -9 -21
-20 -3 -11 -13 -20 -22 -20 -9 0 -21 -8 -27 -17 l-11 -18 -59 0 -59 0 0 32
c-1 39 0 39 -53 35z"/>
<path d="M1928 3013 l-17 -4 11 -24 11 -24 31 6 c39 7 56 21 49 39 l-5 14 -32
-1 c-17 -1 -39 -3 -48 -6z"/>
<path d="M734 2919 l-39 -62 -48 -39 -49 -38 16 0 c23 0 135 115 152 157 24
56 10 48 -32 -18z"/>
<path d="M2011 2950 l-12 -7 18 -31 18 -32 23 0 22 0 -12 22 c-7 12 -20 29
-29 38 l-17 18 -11 -8z"/>
<path d="M1430 2783 c0 -5 -11 -15 -25 -21 -14 -6 -25 -19 -25 -27 l0 -16 -46
-19 c-25 -11 -57 -20 -70 -20 l-25 0 6 -10 7 -11 36 7 c56 10 168 102 148 121
-3 4 -6 2 -6 -4z"/>
<path d="M543 2566 c-21 -18 -51 -40 -66 -49 l-28 -18 6 -19 6 -18 -22 -15
-21 -15 4 -18 c1 -9 9 -19 16 -22 l12 -4 0 16 c0 9 7 16 15 16 l15 0 0 29 0
29 40 -10 40 -10 22 14 23 15 55 -3 c30 -2 84 -12 120 -23 36 -10 91 -24 122
-31 32 -6 60 -16 63 -21 4 -5 19 -9 36 -9 l29 0 0 -35 c0 -19 -3 -35 -8 -35
-4 0 -16 -24 -26 -52 -27 -78 -48 -98 -61 -59 -3 11 -20 33 -37 50 l-30 30
-52 12 c-28 7 -87 13 -131 12 l-80 0 -35 -16 c-29 -13 -100 -70 -100 -80 0 -5
65 1 81 7 l15 7 27 -21 26 -21 -6 -16 -6 -15 24 7 c36 11 36 11 -12 54 l-44
39 19 21 c11 12 27 21 37 21 l18 0 23 -42 23 -43 33 -3 33 -3 16 12 c8 7 19
23 24 36 5 13 16 23 25 23 24 0 54 -29 47 -46 l-5 -14 11 0 c7 0 22 -10 35
-22 l22 -23 25 1 c13 1 34 2 46 3 l21 1 7 43 c4 23 11 47 15 52 4 6 10 25 13
43 l7 33 -15 5 c-24 10 -17 31 13 40 l27 7 -17 4 -18 4 0 30 0 29 -15 0 c-8 0
-20 9 -27 20 -7 11 -19 20 -28 20 -8 0 -32 6 -55 14 -103 35 -143 45 -177 45
-20 -1 -43 3 -50 7 -7 5 -39 9 -70 10 l-58 1 -37 -31z"/>
<path d="M1455 2501 c-4 -3 -24 -11 -45 -17 l-39 -12 -12 14 c-6 8 -20 14 -30
14 l-19 0 -2 -22 c-1 -13 -2 -32 -3 -44 0 -11 -11 -31 -23 -44 l-22 -24 10
-10 9 -9 42 28 42 27 106 4 c58 2 135 0 171 -4 l65 -7 -2 -10 c-1 -5 5 -18 14
-27 l15 -17 15 15 c21 21 30 10 38 -46 11 -76 21 -60 17 28 l-4 77 -42 43 -43
44 -126 3 c-69 1 -129 0 -132 -4z"/>
<path d="M1256 2288 c-3 -13 -6 -36 -6 -53 l0 -29 14 19 c7 11 17 35 21 53 l7
32 -15 0 c-8 0 -17 -10 -21 -22z"/>
<path d="M1445 2268 c-57 -12 -91 -29 -104 -50 l-11 -18 10 0 c5 0 10 5 10 10
0 6 6 10 14 10 7 0 19 7 26 15 7 8 21 15 32 15 l19 0 14 -34 c24 -58 70 -62
113 -11 l29 36 26 -10 c14 -5 28 -19 32 -31 l7 -21 -16 -24 -16 -24 -45 -6
c-25 -4 -62 -5 -82 -1 l-38 5 33 -15 c37 -16 49 -18 110 -16 l42 2 0 13 c1 6
9 22 20 35 l19 23 31 -16 c46 -24 47 -13 4 35 -65 71 -174 102 -279 78z"/>
<path d="M1060 2155 c0 -16 -12 -34 -42 -63 -10 -9 -18 -24 -18 -34 0 -10 -6
-18 -12 -18 -13 -1 -39 -51 -53 -100 -4 -14 -22 -39 -41 -57 -35 -33 -41 -47
-24 -58 6 -3 10 -26 10 -50 l0 -45 26 -16 25 -17 -4 -19 -5 -19 14 12 14 11
15 -12 14 -12 -4 -39 c-8 -81 -34 -106 -45 -43 l-6 29 -13 -25 c-31 -59 -81
-89 -66 -39 l6 19 -31 -18 -31 -17 -13 18 -14 18 -6 -16 -5 -15 -29 0 -28 0
-1 -32 c0 -18 -5 -46 -12 -61 -12 -30 -5 -77 10 -77 l9 0 -6 -25 c-7 -28 2
-31 29 -11 20 15 22 27 5 23 -19 -3 -21 33 -4 52 l16 17 -11 11 c-12 12 -4 33
11 33 5 0 18 -19 29 -42 l20 -43 6 17 c4 9 4 22 0 28 l-6 10 32 29 32 29 13
-5 c8 -3 22 -2 32 2 9 5 25 7 36 6 10 -2 22 2 25 8 l7 11 39 -20 c21 -11 39
-19 39 -17 1 1 9 16 19 34 l17 32 -9 5 c-5 3 -12 -2 -15 -11 l-7 -17 -15 16
-16 15 14 22 c16 25 28 27 28 4 l0 -17 23 22 22 23 -15 9 -14 9 17 36 17 36
-46 49 -47 50 -23 0 -24 0 0 -18 0 -18 35 0 35 0 16 -16 c56 -56 -82 -51 -143
5 l-23 20 0 24 c0 27 45 129 61 139 6 3 24 35 41 70 17 35 34 64 38 64 12 0
50 69 50 91 0 10 -4 19 -10 19 -5 0 -10 -7 -10 -15z"/>
<path d="M1332 1932 c2 -4 12 -29 23 -55 23 -54 35 -60 35 -17 l0 31 -14 5
c-8 3 -16 14 -19 25 -3 10 -10 19 -17 19 -6 0 -10 -4 -8 -8z"/>
<path d="M1236 1791 l-18 -19 23 -4 c30 -4 34 -20 8 -36 l-21 -13 -14 12 -14
11 0 -11 c0 -6 11 -18 25 -27 l25 -16 0 -34 0 -34 24 6 23 5 6 -20 c6 -26 -1
-33 -23 -21 l-18 10 -12 -15 c-18 -22 -30 -18 -30 8 0 12 -6 30 -13 39 l-13
17 -13 -8 -12 -8 6 -24 6 -25 -20 -18 -21 -19 -13 12 -14 11 -13 -15 -12 -15
27 0 27 0 5 -20 c8 -29 33 -22 46 13 l7 18 21 -6 20 -7 14 19 14 18 4 -15 c3
-8 8 -23 11 -33 l6 -17 19 12 20 12 18 -16 c10 -9 33 -30 51 -47 18 -17 38
-30 44 -28 14 2 22 -28 14 -50 l-7 -16 -11 11 c-7 7 -24 12 -38 12 -14 0 -34
6 -44 13 l-18 13 -56 -8 c-31 -4 -122 -10 -202 -14 -80 -3 -153 -10 -162 -15
-9 -5 -35 -9 -57 -9 -46 0 -55 -16 -14 -26 l27 -7 30 12 31 12 115 3 c63 2
151 9 194 15 l79 13 44 -17 45 -17 38 6 38 6 17 -27 18 -26 -18 -13 -18 -13
13 -16 12 -15 -12 -30 -13 -31 18 -19 c10 -11 15 -26 12 -34 -3 -8 1 -20 9
-27 l15 -12 -10 -10 c-5 -5 -17 -7 -25 -4 l-16 6 6 16 6 15 -16 6 -17 7 -14
-19 c-8 -11 -15 -27 -15 -36 l0 -18 -20 0 -20 0 0 -14 c0 -8 9 -18 20 -21 11
-3 20 -12 20 -19 0 -23 -13 -26 -32 -9 l-18 16 0 -14 c0 -8 9 -20 21 -27 l21
-13 -13 -15 -12 -14 -13 11 c-7 6 -18 8 -24 4 l-12 -7 6 -23 6 -23 -14 -11
c-8 -7 -20 -11 -28 -10 -18 3 -51 -12 -65 -30 l-13 -16 -16 20 -16 20 7 -22 6
-23 -15 0 c-8 0 -22 10 -30 22 -9 12 -16 18 -16 12 0 -5 -16 -17 -35 -26 l-35
-15 -12 14 -12 15 12 19 12 19 -11 21 c-6 12 -9 30 -6 40 3 10 1 19 -4 19 -9
0 -12 -21 -13 -94 l-1 -39 -29 -10 -29 -10 -12 17 c-7 9 -17 16 -23 16 -6 0
-13 8 -15 18 l-5 17 -1 -22 -1 -23 -29 0 c-16 0 -34 7 -41 15 -7 8 -21 15 -32
15 -30 0 -58 19 -58 39 l0 19 -19 5 -19 5 6 28 5 29 -21 -25 -21 -25 -11 11
-10 10 20 46 c29 67 56 81 73 38 l5 -15 1 18 c1 9 6 17 11 17 16 0 12 14 -11
38 l-20 22 -11 -6 -11 -7 6 16 6 15 -14 6 -14 5 -10 -32 c-6 -18 -13 -51 -17
-74 l-7 -43 -17 0 c-45 0 -140 84 -140 123 0 6 -8 19 -17 29 l-17 19 22 6 23
5 -6 18 -5 17 15 13 c20 17 19 27 -6 58 l-21 27 3 -36 3 -37 -13 -15 c-7 -9
-10 -21 -6 -27 10 -16 -23 -24 -40 -10 -47 39 65 -132 117 -179 21 -19 38 -39
38 -46 0 -12 93 -85 109 -85 5 0 16 -11 24 -24 9 -13 42 -37 74 -52 l58 -29
145 0 145 0 50 14 c75 22 165 82 165 110 0 5 8 16 19 23 10 7 29 29 42 48 13
19 36 51 51 71 l28 35 -10 59 -10 59 11 12 10 12 -11 7 -11 7 6 38 6 38 -12
20 -12 20 17 36 17 37 -6 30 c-7 30 -29 49 -55 46 -8 -1 -15 3 -15 8 0 6 6 9
13 9 6 -1 12 2 12 6 0 5 -19 8 -42 7 -54 0 -94 16 -103 42 -3 12 -12 21 -18
21 -7 0 -25 13 -40 30 l-28 29 17 26 17 27 -13 8 -14 9 13 27 12 27 -13 8
c-20 13 -33 11 -52 -10z"/>
<path d="M1851 1453 c-6 -31 -11 -63 -11 -71 l0 -14 14 11 c8 7 12 19 10 29
-6 23 31 81 59 92 l22 9 -41 0 -41 1 -12 -57z"/>
<path d="M586 1405 c-3 -8 -11 -12 -18 -10 -7 3 -19 -4 -25 -14 l-13 -20 11
-6 c5 -4 21 1 34 9 l25 16 0 20 c0 24 -6 26 -14 5z"/>
<path d="M1806 1311 c-9 -10 -26 -42 -37 -70 l-19 -52 19 11 20 10 7 38 c3 20
13 47 20 60 18 27 13 29 -10 3z"/>
<path d="M650 1276 c0 -8 -12 -19 -27 -24 l-28 -10 23 -1 22 -1 0 -25 c0 -14
-5 -34 -12 -45 -19 -29 1 -38 22 -10 l19 25 12 -12 c18 -18 34 -16 19 2 -7 8
-21 15 -31 15 l-19 0 0 15 c0 7 6 18 14 22 l14 8 -5 28 c-5 28 -23 38 -23 13z"/>
<path d="M1307 1239 l-18 -11 -179 0 c-98 0 -183 2 -188 6 -5 3 -13 -1 -16
-10 -9 -23 -8 -24 14 -24 11 0 20 -4 20 -9 0 -5 15 -12 33 -15 l33 -6 22 -29
21 -29 21 5 20 5 0 -16 c0 -20 14 -21 30 -1 16 20 37 19 48 -1 5 -9 14 -14 20
-10 l11 6 -4 39 -4 39 15 6 c9 3 26 3 39 0 l23 -6 6 11 c4 6 15 11 25 11 10 0
24 7 31 15 l13 16 -9 9 -9 9 -18 -10z"/>
<path d="M93 1160 c-13 -15 -23 -32 -23 -36 0 -4 -9 -18 -21 -30 l-21 -23 -14
6 -14 5 0 -15 0 -16 33 -3 32 -3 4 -45 5 -45 5 55 6 55 60 30 60 30 -34 33
c-41 39 -50 39 -78 2z"/>
<path d="M1012 1032 l-2 -24 -20 -5 -20 -5 0 -19 c0 -22 23 -25 39 -5 l12 15
-4 33 -4 33 -1 -23z"/>
<path d="M1215 987 c0 -17 -4 -38 -9 -45 l-9 -13 13 3 13 3 8 -25 9 -25 -5 59
c-2 32 -8 63 -12 67 l-9 9 1 -33z"/>
<path d="M1484 903 c-15 -21 -46 -57 -68 -80 -22 -24 -37 -43 -33 -43 11 0
137 135 137 148 0 19 -7 14 -36 -25z"/>
<path d="M1250 680 c-8 -6 -32 -15 -52 -20 -34 -10 -74 -38 -65 -46 5 -5 96
40 122 60 22 17 19 21 -5 6z"/>
<path d="M828 599 c-39 -22 43 -46 115 -32 41 8 21 24 -22 17 l-37 -6 -13 16
c-16 19 -20 19 -43 5z"/>
<path d="M1158 510 c-7 -11 -18 -20 -25 -20 -7 0 -26 -18 -44 -40 -17 -21 -39
-41 -48 -42 l-16 -4 22 -6 22 -6 26 24 c14 12 25 26 25 29 0 3 10 16 23 28 12
12 28 30 36 40 l13 17 -11 0 c-6 0 -16 -9 -23 -20z"/>
<path d="M1005 350 c-3 -5 -14 -10 -24 -10 -22 0 -113 -78 -106 -90 3 -5 -7
-16 -23 -24 -15 -8 -33 -26 -40 -40 -6 -14 -16 -26 -21 -26 -9 0 -111 -98
-111 -106 0 -3 27 14 60 38 33 23 60 46 60 51 0 11 26 37 37 37 11 0 43 37 43
50 0 6 4 10 8 10 5 0 34 21 64 48 30 26 64 52 74 59 l19 12 -17 0 c-9 1 -20
-3 -23 -9z"/>
</g>
</svg>
